<?xml version="1.0" encoding="utf-8"?>
<!-- Generator: Adobe Illustrator 21.0.2, SVG Export Plug-In . SVG Version: 6.00 Build 0)  -->
<svg version="1.1" id="Layer_1" xmlns="http://www.w3.org/2000/svg" xmlns:xlink="http://www.w3.org/1999/xlink" x="0px" y="0px"
	 viewBox="0 0 80.4 232.5" style="enable-background:new 0 0 80.4 232.5;" xml:space="preserve">
<style type="text/css">
	.st0{fill:#FFFFFF;stroke:#000000;stroke-width:3;stroke-miterlimit:10;}
	.st1{fill:none;stroke:#000000;stroke-width:3;stroke-miterlimit:10;}
</style>
<g>
	<path class="st0" d="M3.6,0v71.9l-0.3,1.3c-2.4,9.7-2.4,19.9,0,29.6l0.3,1.3v89.3c0,20.8,16.8,37.6,37.6,37.6h0
		c20.8,0,37.6-16.8,37.6-37.6v-27.6c0-6.2-0.9-11-2.5-17l-0.1-0.5l0,0c1.8-6.1,2.7-13.8,2.7-20.1v-16.1c0-6.9-1.1-13.8-3.2-20.4
		L74.8,89l0,0c2.7-7.4,4-15.1,4-23V0"/>
	<path class="st1" d="M33.5,222.9h-0.6c-16.2,0-29.3-13.1-29.3-29.3v-24.5l0,0c19.3-5.3,39.7-5.3,59.1,0l0,0v24.5
		C62.7,209.8,49.6,222.9,33.5,222.9z"/>
	<path class="st1" d="M34.1,218.2"/>
	<path class="st1" d="M62.1,160.5"/>
	<path class="st1" d="M12.4,159.7c13.6-2.5,27.5-2.4,41.1,0.2"/>
	<line class="st1" x1="31.6" y1="180" x2="41.9" y2="180"/>
	<polyline class="st1" points="11,180 21.3,180 21.3,204.1 31.6,204.1 	"/>
	<path class="st1" d="M12.4,98.7l0.2,0c7.8-1.7,16-1.7,23.8,0l0.2,0"/>
	<path class="st1" d="M12.4,88l0.2,0c7.8-1.7,16-1.7,23.8,0l0.2,0"/>
	<path class="st1" d="M12.4,77.2l0.2,0c7.8-1.7,16-1.7,23.8,0l0.2,0"/>
	<line class="st1" x1="75.5" y1="89.3" x2="75.5" y2="89.3"/>
	<line class="st1" x1="75.5" y1="89.3" x2="71.5" y2="89.3"/>
	<line class="st1" x1="75.5" y1="148.4" x2="71.5" y2="148.4"/>
</g>
</svg>
